<svg width="74" height="32" viewBox="0 0 74 32" fill="none" xmlns="http://www.w3.org/2000/svg">
<path d="M1.517 25.3098C1.517 25.8969 1.96783 26.1042 3.00819 26.415C4.04855 26.7259 5.29699 27.1058 5.26231 28.6255C5.26231 29.8344 4.22195 30.6288 2.6614 30.6288C1.75975 30.6288 0.788746 30.2143 0.129849 29.5926C-0.00886623 29.489 -0.043545 29.2817 0.0604914 29.1436L0.268564 28.7982C0.337922 28.6946 0.441958 28.6255 0.545995 28.6255C0.68471 28.6255 0.788746 28.66 0.823425 28.6946C1.23957 29.1091 1.96783 29.4544 2.62672 29.4544C3.3203 29.4544 4.04855 29.2127 4.04855 28.591C4.04855 27.9693 3.59773 27.762 2.55737 27.4512C2.5315 27.4432 2.50547 27.4352 2.47931 27.4271C1.48828 27.1218 0.303243 26.7568 0.303243 25.3098C0.303243 24.17 1.30893 23.4102 2.80012 23.4102C3.52837 23.4102 4.29131 23.6519 4.84617 23.9973C5.01956 24.1009 5.05424 24.3082 4.98488 24.4809L4.81149 24.8262C4.77681 24.9299 4.67277 24.9989 4.56874 25.0335C4.4647 25.068 4.36066 25.068 4.25663 24.9989C3.87516 24.7572 3.3203 24.5845 2.80012 24.5845C2.21058 24.5845 1.517 24.7917 1.517 25.3098Z" fill="#17428C"/>
<path fill-rule="evenodd" clip-rule="evenodd" d="M9.52788 23.5132C9.6666 23.5132 9.80531 23.5823 9.87467 23.7204L12.7877 30.1101C12.8224 30.2137 12.8224 30.3519 12.753 30.4555C12.6837 30.5591 12.5796 30.6282 12.4409 30.6282H12.0248C11.886 30.6282 11.7473 30.5591 11.678 30.4209L10.9497 28.8321H7.68991L6.96165 30.4209C6.8923 30.5591 6.75358 30.6282 6.61486 30.6282H6.19872C6.06 30.6282 5.95597 30.5591 5.88661 30.4555C5.81725 30.3519 5.78257 30.2137 5.85193 30.1101L8.76495 23.7204C8.83431 23.6168 8.97302 23.5132 9.11174 23.5132H9.52788ZM9.31981 25.2056L8.21009 27.6578H10.4295L9.31981 25.2056Z" fill="#17428C"/>
<path d="M14.7298 23.4788H14.3483C14.1403 23.4788 13.9669 23.6515 13.9669 23.8588V30.2484C13.9669 30.4557 14.1403 30.6284 14.3483 30.6284H14.7298C14.9379 30.6284 15.1113 30.4557 15.1113 30.2484V23.8588C15.1113 23.6515 14.9379 23.4788 14.7298 23.4788Z" fill="#17428C"/>
<path d="M22.359 23.4788H22.7058C22.9139 23.4788 23.0873 23.6515 23.0873 23.8588V30.2139C23.0873 30.4211 22.9139 30.5938 22.7058 30.5938H22.255C22.1163 30.5938 22.0122 30.5593 21.9429 30.4557L18.3709 25.5857V30.283C18.3709 30.4902 18.1975 30.6629 17.9895 30.6629H17.608C17.3999 30.6629 17.2265 30.4902 17.2265 30.283V23.8933C17.2265 23.6861 17.3999 23.5134 17.608 23.5134H18.0588C18.1975 23.5134 18.3016 23.5479 18.3709 23.6515L21.9775 28.5215V23.8588C21.9775 23.6515 22.1509 23.4788 22.359 23.4788Z" fill="#17428C"/>
<path d="M29.3294 23.4788H24.6131C24.405 23.4788 24.2316 23.6515 24.2316 23.8588V24.2387C24.2316 24.4459 24.405 24.6186 24.6131 24.6186H26.3817V30.2484C26.3817 30.4557 26.5551 30.6284 26.7632 30.6284H27.1446C27.3527 30.6284 27.5261 30.4557 27.5261 30.2484V24.6186H29.2947C29.5028 24.6186 29.6762 24.4459 29.6762 24.2387V23.8588C29.7109 23.6515 29.5375 23.4788 29.3294 23.4788Z" fill="#17428C"/>
<path d="M30.0922 26.9676H32.1383C32.3464 26.9676 32.5198 27.1403 32.5198 27.3475V27.6584C32.5198 27.8656 32.3464 28.0383 32.1383 28.0383H30.0922C29.8842 28.0383 29.7108 27.8656 29.7108 27.6584V27.3475C29.7108 27.1403 29.8842 26.9676 30.0922 26.9676Z" fill="#17428C"/>
<path d="M40.1145 26.7253H38.6234C38.4153 26.7253 38.2419 26.898 38.2419 27.1052V27.4851C38.2419 27.6924 38.4153 27.8651 38.6234 27.8651H39.3863V29.0394C38.9355 29.3502 38.4153 29.5229 37.8604 29.5229C36.4386 29.5229 35.2942 28.4177 35.2942 27.0707C35.2942 25.7237 36.4386 24.6184 37.8604 24.6184C38.5193 24.6184 39.1782 24.8602 39.6291 25.2747C39.6984 25.3437 39.8024 25.3783 39.9065 25.3783C40.0105 25.3783 40.1146 25.3092 40.1839 25.2401L40.4267 24.9638C40.5654 24.7911 40.5307 24.5839 40.392 24.4457C39.6984 23.8586 38.7968 23.5132 37.8951 23.5132C35.8491 23.5132 34.1845 25.102 34.1845 27.0707C34.1845 29.0394 35.8491 30.6627 37.8604 30.6627C38.7968 30.6627 39.6984 30.3173 40.392 29.7302C40.4613 29.6611 40.5307 29.5575 40.5307 29.4538V27.1397C40.496 26.898 40.3226 26.7253 40.1145 26.7253Z" fill="#17428C"/>
<path fill-rule="evenodd" clip-rule="evenodd" d="M41.7792 27.0363C41.7792 25.0676 43.4438 23.4788 45.4898 23.4788C47.5359 23.4788 49.1658 25.0676 49.2005 27.0363C49.2005 29.005 47.5359 30.6284 45.4898 30.6284C43.4438 30.6284 41.7792 29.005 41.7792 27.0363ZM42.9583 27.0709C42.9583 28.4179 44.1027 29.5231 45.4898 29.5231C46.877 29.5231 48.0214 28.4179 48.0214 27.0709C48.0214 25.7239 46.877 24.6186 45.4898 24.6186C44.1027 24.6186 42.9583 25.7239 42.9583 27.0709Z" fill="#17428C"/>
<path fill-rule="evenodd" clip-rule="evenodd" d="M55.2345 26.8636C55.6159 26.5183 55.824 26.0347 55.824 25.4475C55.824 24.2387 54.9224 23.4788 53.4312 23.4788H50.7956C50.5875 23.4788 50.4141 23.6515 50.4141 23.8588V30.2484C50.4141 30.4557 50.5875 30.6284 50.7956 30.6284H53.4312C55.0958 30.6284 56.1014 29.834 56.1014 28.5215C56.1708 27.7962 55.824 27.209 55.2345 26.8636ZM51.6279 27.5199H53.4658C54.0554 27.5199 55.0264 27.658 55.0264 28.487C55.0264 29.3159 54.1594 29.4886 53.4658 29.4886H51.6279V27.5199ZM53.4658 26.3801H51.6279V24.6186H53.4658C54.0207 24.6186 54.7143 24.7568 54.7143 25.4821C54.7143 26.0692 54.2981 26.3801 53.4658 26.3801Z" fill="#17428C"/>
<path fill-rule="evenodd" clip-rule="evenodd" d="M60.4709 23.5132C60.6096 23.5132 60.7484 23.5823 60.8177 23.7204L63.7307 30.1101C63.7654 30.2137 63.7654 30.3519 63.6961 30.4555C63.6267 30.5591 63.5227 30.6282 63.384 30.6282H62.9678C62.8291 30.6282 62.6904 30.5591 62.621 30.4209L61.8928 28.8321H58.633L57.9047 30.4209C57.8353 30.5591 57.6966 30.6282 57.5579 30.6282H57.1418C57.0031 30.6282 56.899 30.5591 56.8297 30.4555C56.7603 30.3519 56.7256 30.2137 56.795 30.1101L59.708 23.7204C59.7774 23.6168 59.9161 23.5132 60.0548 23.5132H60.4709ZM60.2629 25.2056L59.1531 27.6578H61.3726L60.2629 25.2056Z" fill="#17428C"/>
<path d="M65.6728 23.4788H65.2914C65.0833 23.4788 64.9099 23.6515 64.9099 23.8588V30.2484C64.9099 30.4557 65.0833 30.6284 65.2914 30.6284H65.6728C65.8809 30.6284 66.0543 30.4557 66.0543 30.2484V23.8588C66.0543 23.6515 65.8809 23.4788 65.6728 23.4788Z" fill="#17428C"/>
<path d="M73.2673 23.4788H73.6488C73.8568 23.4788 74.0302 23.6515 73.9956 23.8588V30.2139C73.9956 30.4211 73.8222 30.5938 73.6141 30.5938H73.1633C73.0246 30.5938 72.9205 30.5593 72.8512 30.4557L69.2792 25.5857V30.283C69.2792 30.4902 69.1058 30.6629 68.8978 30.6629H68.5163C68.3082 30.6629 68.1348 30.4902 68.1348 30.283V23.8933C68.1348 23.6861 68.3082 23.5134 68.5163 23.5134H68.9671C69.1058 23.5134 69.2099 23.5479 69.2792 23.6515L72.8858 28.5215V23.8588C72.8858 23.6515 73.0592 23.4788 73.2673 23.4788Z" fill="#17428C"/>
<path d="M40.4786 13.0244L41.6223 13.8621V19.9605H40.4786V13.0244ZM45.0186 0.827694L39.5082 6.2559C39.4043 6.35643 39.335 6.49046 39.335 6.65799V10.8129L37.0823 9.17105C36.8744 9.03702 36.5625 9.03702 36.3892 9.17105L31.2254 13.1584C31.0868 13.259 31.0174 13.4265 31.0174 13.594V19.9605H29.8391V16.4422C29.8391 15.2024 28.9727 13.8956 27.3439 13.8956C25.715 13.8956 24.8486 15.2024 24.8486 16.4422V19.927H23.6703V17.5479C23.6703 16.5762 22.9772 15.571 21.7295 15.571C20.4472 15.571 19.7888 16.6097 19.7888 17.5479V19.927H18.5758V19.8599C18.5758 19.3908 18.5758 18.7542 18.5758 18.5196C18.5758 17.7155 17.7787 16.9783 16.8776 16.9783C15.9766 16.9783 15.1795 17.682 15.1795 18.5196V19.9605H10.0503C9.73843 19.9605 9.46118 20.195 9.46118 20.5301C9.46118 20.6641 9.53049 20.8317 9.63446 20.9322C9.73843 21.0327 9.87706 21.0997 10.0503 21.0997H15.7686C15.9073 21.0997 16.0805 21.0327 16.1845 20.9322C16.2885 20.8317 16.3578 20.6976 16.3578 20.5301V18.6202C16.3578 18.4191 16.6004 18.1176 16.9123 18.1176C17.2242 18.1176 17.4668 18.3856 17.4668 18.6537C17.4668 18.7877 17.4668 20.5301 17.4668 20.5301C17.4668 20.8317 17.7441 21.0997 18.056 21.0997H20.3779C20.6898 21.0997 20.9671 20.8652 20.9671 20.5301V17.5814C20.9671 17.2799 21.1404 16.7102 21.7642 16.7102C22.388 16.7102 22.5613 17.2799 22.5613 17.5814V20.5301C22.5613 20.8317 22.8039 21.0997 23.1504 21.0997H25.4724C25.611 21.0997 25.7843 21.0327 25.8883 20.9322C25.9923 20.8317 26.0616 20.6976 26.0616 20.5301V16.4757C26.0616 15.9731 26.3388 15.0349 27.4132 15.0349C28.3836 15.0349 28.7648 15.8726 28.7648 16.4422V20.5301C28.7648 20.8317 29.0074 21.0997 29.3539 21.0997H31.6759C31.9878 21.0997 32.2651 20.8652 32.2651 20.5301V13.8621L32.2997 13.8286L36.8397 10.3103L39.4389 12.1867V20.5301C39.4389 20.8317 39.6815 21.0997 40.0281 21.0997H42.3501C42.662 21.0997 42.9392 20.8652 42.9392 20.5301V13.594C42.9392 13.4265 42.8353 13.259 42.6966 13.1584L40.6172 11.6506V6.85904L40.6519 6.82553L44.9839 2.57008V20.5301C44.9839 20.8317 45.2265 21.0997 45.5731 21.0997H47.8951C48.207 21.0997 48.4842 20.8652 48.4842 20.5301V8.83598H49.3507L49.3853 8.86949L52.3311 11.5501V20.5301C52.3311 20.8317 52.5737 21.0997 52.9203 21.0997H55.2769C55.5888 21.0997 55.866 20.8652 55.866 20.5301V17.816L59.0891 20.8987C59.1931 20.9992 59.3317 21.0662 59.505 21.0662H64.2875C64.5994 21.0662 64.8767 20.8317 64.8767 20.4966C64.8767 20.195 64.6341 19.927 64.2875 19.927H59.7129L59.6782 19.8934L55.6581 16.0736C55.4848 15.9061 55.2422 15.8726 55.0343 15.9396C54.8264 16.0401 54.6877 16.2411 54.6877 16.4422V19.927H53.5094V11.3155C53.5094 11.148 53.4401 11.014 53.3361 10.9134L50.0091 7.86426C49.9052 7.76374 49.7665 7.69673 49.6279 7.69673H47.9644C47.6525 7.69673 47.3752 7.93128 47.3752 8.26635V19.9605H46.1969V10.5784V1.19628C46.1969 0.961724 46.0583 0.760679 45.8504 0.693664C45.781 0.660156 45.7117 0.660156 45.6424 0.660156C45.2612 0.660156 45.1226 0.727171 45.0186 0.827694Z" fill="url(#paint0_linear_1314_49954)"/>
<defs>
<linearGradient id="paint0_linear_1314_49954" x1="9.44146" y1="10.8657" x2="64.697" y2="10.8657" gradientUnits="userSpaceOnUse">
<stop stop-color="#43B0B1"/>
<stop offset="0.1" stop-color="#43B0B1"/>
<stop offset="0.3" stop-color="#0096D5"/>
<stop offset="0.42" stop-color="#0E4E95"/>
<stop offset="0.55" stop-color="#EC1846"/>
<stop offset="0.84" stop-color="#F26F21"/>
<stop offset="1" stop-color="#F26F21"/>
</linearGradient>
</defs>
</svg>
